<?xml version="1.0" standalone="no"?>
<!DOCTYPE svg PUBLIC "-//W3C//DTD SVG 20010904//EN"
 "http://www.w3.org/TR/2001/REC-SVG-20010904/DTD/svg10.dtd">
<svg version="1.0" xmlns="http://www.w3.org/2000/svg"
 width="500.000000pt" height="500.000000pt" viewBox="0 0 500.000000 500.000000"
 preserveAspectRatio="xMidYMid meet">
<metadata>
Created by potrace 1.14, written by Peter Selinger 2001-2017
</metadata>
<g transform="translate(0.000000,500.000000) scale(0.100000,-0.100000)"
fill="#000000" stroke="none">
<path d="M1464 4801 c5 -7 -1 -10 -16 -7 -13 1 -35 0 -50 -5 -19 -5 -28 -4
-28 4 0 9 -2 9 -8 1 -4 -6 -19 -10 -34 -10 -16 1 -28 -2 -28 -6 0 -4 -12 -8
-26 -8 -14 0 -34 -5 -45 -10 -14 -8 -19 -7 -19 1 0 8 -4 8 -12 1 -7 -5 -39
-15 -70 -22 -32 -7 -58 -17 -58 -22 0 -5 -5 -6 -10 -3 -6 4 -17 1 -25 -5 -8
-7 -15 -9 -15 -5 0 4 -7 2 -15 -5 -8 -7 -15 -10 -15 -6 0 4 -11 -1 -25 -10
-14 -9 -25 -13 -25 -9 0 4 -6 3 -12 -3 -7 -5 -49 -29 -93 -52 -78 -41 -170
-100 -230 -147 -16 -13 -34 -27 -40 -31 -50 -37 -63 -50 -58 -56 3 -3 2 -6 -3
-6 -6 0 -29 -18 -52 -40 -22 -22 -40 -40 -37 -40 2 0 -10 -16 -27 -35 -17 -19
-48 -60 -69 -92 -21 -32 -42 -63 -46 -69 -28 -38 -111 -206 -118 -239 -3 -14
-34 -107 -42 -125 -10 -24 -22 -65 -28 -96 -2 -10 -4 -20 -5 -21 -2 -2 -3 -6
-4 -10 -8 -34 -17 -74 -22 -103 -3 -19 -8 -48 -11 -65 -8 -44 -12 -435 -4
-435 4 0 8 -10 8 -22 1 -13 4 -34 6 -48 3 -14 8 -43 11 -65 4 -22 10 -47 13
-55 3 -8 8 -24 10 -35 2 -11 6 -27 10 -35 3 -8 7 -23 8 -33 1 -11 6 -22 11
-25 5 -4 11 -16 12 -27 2 -11 11 -33 20 -50 9 -16 15 -33 14 -37 -1 -5 2 -8 8
-8 5 0 7 -6 4 -14 -3 -7 1 -16 9 -19 9 -3 18 -19 22 -36 4 -17 10 -31 15 -31
4 0 13 -13 20 -30 7 -16 16 -30 21 -30 5 0 9 -7 9 -15 0 -8 5 -15 10 -15 6 0
10 -5 10 -11 0 -6 6 -16 13 -24 6 -7 26 -30 42 -51 17 -21 38 -46 48 -56 9
-10 17 -22 17 -27 0 -10 81 -100 135 -149 22 -21 56 -53 75 -72 45 -45 156
-140 163 -140 9 0 197 -192 197 -201 0 -5 7 -9 15 -9 8 0 15 -5 15 -11 0 -6 7
-17 15 -25 8 -9 15 -13 15 -9 0 4 12 -8 27 -27 32 -39 63 -68 73 -68 4 0 13
-11 20 -25 7 -13 17 -22 22 -19 4 3 8 -2 8 -11 0 -9 5 -13 10 -10 6 3 10 -1
10 -9 0 -9 7 -16 15 -16 8 0 15 -7 15 -15 0 -8 7 -15 15 -15 8 0 15 -5 15 -11
0 -15 26 -39 34 -32 3 4 6 -1 6 -10 0 -9 7 -17 16 -17 8 0 12 -4 9 -10 -3 -5
-2 -10 3 -10 12 0 72 -58 72 -69 0 -5 9 -13 20 -16 11 -3 20 -11 20 -16 0 -14
26 -39 40 -39 6 0 8 -5 5 -10 -3 -6 -2 -10 3 -10 11 0 72 -57 72 -68 0 -5 11
-15 25 -22 13 -7 22 -16 20 -20 -2 -4 7 -13 20 -20 13 -7 22 -16 20 -20 -2 -3
5 -13 17 -21 12 -8 33 -27 47 -43 14 -16 32 -34 38 -40 48 -42 68 -63 70 -71
1 -5 10 -12 20 -16 10 -4 15 -8 11 -8 -10 -1 41 -51 52 -51 5 0 12 -9 15 -20
4 -11 11 -18 16 -15 5 4 9 -1 9 -9 0 -9 7 -16 16 -16 8 0 13 -4 9 -9 -3 -5 4
-12 15 -16 11 -3 20 -11 20 -16 0 -6 4 -7 10 -4 6 3 7 -1 4 -10 -5 -11 0 -18
14 -22 12 -3 24 -14 27 -24 4 -10 12 -19 18 -19 7 0 21 -13 32 -29 10 -16 23
-27 27 -25 4 3 8 -2 8 -11 0 -9 4 -13 10 -10 5 3 10 -1 10 -9 0 -9 7 -16 15
-16 8 0 15 -7 15 -16 0 -8 5 -12 10 -9 6 3 10 0 10 -7 0 -16 36 -49 44 -41 3
4 6 -1 6 -10 0 -10 7 -17 16 -17 8 0 12 -4 9 -10 -6 -9 8 -14 27 -11 5 0 7 -2
6 -7 -4 -12 26 -52 39 -52 7 0 13 -4 13 -10 0 -13 57 -70 70 -70 6 0 9 -3 7
-7 -4 -9 30 -44 38 -40 11 4 370 362 368 366 -1 2 18 21 43 42 25 21 42 39 37
39 -4 0 -2 4 6 9 17 11 240 231 234 231 -2 0 16 17 41 37 25 21 48 46 51 56 4
10 9 17 11 14 4 -4 699 690 715 714 5 8 9 10 9 6 0 -5 34 27 77 70 42 43 79
78 83 78 3 0 13 7 22 15 9 8 39 35 68 60 94 81 157 144 176 179 11 19 34 49
52 68 18 18 30 33 27 33 -3 0 5 11 19 24 15 13 26 28 26 35 0 6 4 11 10 11 5
0 9 4 7 8 -1 5 15 26 36 46 20 21 37 42 37 47 0 5 17 26 38 48 20 21 44 52 52
67 8 16 25 44 38 62 14 17 21 32 17 32 -5 0 -1 8 8 18 8 9 16 20 16 25 1 4 8
23 16 44 8 20 29 81 46 137 17 56 34 108 37 116 3 8 5 18 4 21 -1 4 3 21 8 38
5 17 12 55 16 84 3 28 8 66 10 82 9 64 9 80 0 93 -5 7 -5 12 1 12 9 0 10 76 0
86 -3 4 -2 14 3 24 5 10 7 20 3 23 -3 4 -7 28 -9 55 -2 27 -6 62 -9 78 -3 16
-8 47 -11 69 -3 21 -8 44 -12 50 -3 5 -7 19 -9 30 -3 30 -23 107 -31 119 -3 6
-8 22 -10 36 -2 13 -8 30 -14 37 -6 7 -8 13 -4 13 4 0 -4 20 -18 44 -13 24
-22 47 -19 50 4 3 1 6 -5 6 -7 0 -11 3 -10 8 3 8 -51 124 -61 132 -3 3 -15 22
-26 43 -11 20 -23 37 -27 37 -3 0 -9 8 -12 18 -4 10 -19 33 -34 50 -44 52 -73
86 -80 97 -4 6 -26 27 -50 48 -23 20 -39 37 -35 37 4 0 -4 8 -17 17 -33 23
-38 27 -85 68 -22 19 -43 35 -46 35 -3 0 -19 11 -35 25 -16 14 -37 25 -47 25
-10 0 -20 7 -23 15 -4 8 -10 13 -14 10 -5 -3 -12 -1 -15 5 -7 12 -134 73 -175
84 -14 4 -34 11 -45 16 -38 16 -135 50 -162 56 -45 9 -135 25 -168 29 -16 2
-32 4 -35 5 -3 1 -25 2 -49 1 -24 0 -51 5 -59 12 -18 15 -16 15 -34 -1 -8 -6
-26 -11 -39 -11 -13 1 -53 -2 -89 -6 -93 -10 -103 -12 -120 -18 -8 -3 -41 -11
-72 -17 -32 -6 -58 -16 -58 -21 0 -6 -4 -7 -10 -4 -17 11 -233 -84 -325 -143
-22 -15 -43 -25 -47 -24 -5 1 -8 -2 -8 -6 0 -4 -24 -25 -54 -47 -30 -22 -52
-43 -50 -47 3 -4 1 -8 -4 -8 -4 0 -30 -21 -56 -46 l-48 -46 -71 72 c-39 40
-87 84 -107 99 -19 14 -37 28 -40 31 -11 13 -86 55 -92 52 -5 -1 -8 2 -8 6 0
5 -16 14 -35 22 -19 8 -35 17 -35 20 0 4 -6 7 -12 7 -7 1 -41 12 -75 26 -34
14 -64 22 -67 19 -3 -3 -6 -1 -6 5 0 10 -45 24 -91 28 -9 1 -21 5 -28 9 -12 8
-39 14 -91 22 -19 2 -48 7 -65 9 -16 2 -50 5 -74 6 -28 1 -38 5 -30 10 8 5 9
9 4 9 -6 0 -16 -5 -23 -12 -7 -7 -12 -8 -12 -2 0 6 -7 11 -15 11 -8 0 -12 -4
-9 -9 7 -11 -3 -10 -28 3 -15 8 -19 8 -14 0z"/>
<path d="M1 1884 c0 -11 3 -14 6 -6 3 7 2 16 -1 19 -3 4 -6 -2 -5 -13z"/>
</g>
</svg>
